<svg id="Capa_1" data-name="Capa 1" xmlns="http://www.w3.org/2000/svg" viewBox="0 0 1000 1000"><defs><style>.cls-1{fill:#1967d2;}</style></defs><path class="cls-1" d="M821.42,500a35.72,35.72,0,0,0-35.72,35.72V892.86A35.71,35.71,0,0,1,750,928.57H107.14a35.71,35.71,0,0,1-35.71-35.71V178.57a35.71,35.71,0,0,1,35.71-35.71H535.71a35.72,35.72,0,0,0,0-71.43H107.14A107.14,107.14,0,0,0,0,178.57V892.86A107.14,107.14,0,0,0,107.14,1000H750A107.14,107.14,0,0,0,857.13,892.86V535.71A35.71,35.71,0,0,0,821.42,500Z"/><path class="cls-1" d="M960,40.05a136.7,136.7,0,0,0-193.37,0L296.17,510.46a36.22,36.22,0,0,0-8.6,14L216.14,738.71a35.71,35.71,0,0,0,45.14,45.18l214.29-71.42a35.73,35.73,0,0,0,14-8.65L960,233.39A136.72,136.72,0,0,0,960,40.05Z"/></svg>