<svg id="Capa_1" data-name="Capa 1" xmlns="http://www.w3.org/2000/svg" viewBox="0 0 1000 1000"><defs><style>.cls-1{fill:#ea4739;}</style></defs><polygon class="cls-1" points="690.57 344.78 612.3 341.91 595.33 805.35 673.6 808.21 690.57 344.78"/><rect class="cls-1" x="460.84" y="343.34" width="78.33" height="463.45"/><rect class="cls-1" x="317.87" y="343.17" width="78.33" height="463.76" transform="translate(-20.8 13.45) rotate(-2.1)"/><path class="cls-1" d="M693.21,150.13V65.27A65.34,65.34,0,0,0,627.94,0H372.06a65.34,65.34,0,0,0-65.27,65.27v84.86H33.94v78.33h81.62l64.75,735.81a39.16,39.16,0,0,0,39,35.73h560a39.16,39.16,0,0,0,39-35.74l64.75-735.8h82.94V150.13ZM385.12,78.33H614.88v71.8H385.12ZM743.49,921.67H255.18l-61-693.21h610.3Z"/></svg>