<svg id="Capa_1" data-name="Capa 1" xmlns="http://www.w3.org/2000/svg" viewBox="0 0 4750 1000.06"><defs><style>.cls-1{fill:#4587f3;}.cls-2{fill:#63676c;}.cls-3{fill:#ea4739;}.cls-4{fill:#fabd0a;}.cls-5{fill:#ea473a;}.cls-6{fill:#3bab59;}.cls-7{fill:#61656a;}.cls-8{fill:#65696e;}</style></defs><path class="cls-1" d="M522.29,404.11c29.88,0,59.85,1.43,89.61-.47,23-1.46,31.6,4.95,32.39,29.46,3.18,99-30.4,179.67-120.64,225.54C427.12,707.7,330.91,698,243,634.39,125.08,549.09,102.7,387.07,190.79,270.9c87.13-114.9,252.67-137.8,366-52,20.51,15.54,19.11,24.3,2.25,41.54-19.5,19.92-31.24,28.59-59.57,7.43-57.33-42.79-147-37.16-206.49,5.07-62.27,44.19-90.64,123.68-72.19,202.32C237.46,546.53,298.92,603,371.08,613.48,464.21,627,540.73,584.3,564.67,506.38c6.73-21.93,5.91-34-22.75-32.45-39.4,2.11-79-.23-118.51.87-17.67.5-23.45-5.19-23-23,1.69-59.19-6.09-46.34,46.66-47.63C472.16,403.6,497.24,404.11,522.29,404.11Z"/><path class="cls-1" d="M1682.14,378.35c4.22-42.16,36.4-20.66,56.54-23.48,23.41-3.28,15.35,17.24,15.41,28.52.55,95.44,1.67,190.91-.21,286.32-1.29,65.76-24.67,122.12-90.09,148.86C1601,844.25,1541,836,1487.8,791.68a109.49,109.49,0,0,1-12.28-12.18c-36.15-41.43-33.56-50.41,18-67.23,10.6-3.45,16.67-2.28,24.15,7.29,34.33,44,72.84,56.34,115.14,38.91,37.82-15.6,55.7-54.77,49.24-111.7-33.92,29.51-72.26,41.47-115.29,33.1-38.37-7.47-69.54-27.85-93.93-58.14-51.23-63.62-48.9-160.11,5-221.34Q1560.38,306.49,1682.14,378.35ZM1510.58,512.69c-.47,59,35.19,100.74,86.91,101.74,52.47,1,92.72-42.84,92.16-100.42-.55-57.16-38.64-99.78-89.66-100.31C1548,413.17,1511,454.09,1510.58,512.69Z"/><path class="cls-2" d="M2729.11,593.61V516c0-83.8.89-167.62-.6-251.4-.43-24.34,12.25-23.85,28.61-22.48,14.54,1.23,32.79-7.61,32.54,21.39-1.2,137.74-.82,275.49-.18,413.23.09,17.46-4.9,21.81-22.47,23.36-29.79,2.61-46.37-8.64-61.58-34C2644,563.73,2580.28,462.75,2517.36,361.28c-5.45-8.79-11.22-17.4-17-26.37-10.31,6.51-5.65,14.82-5.65,21.63,0,106-.55,211.92,1.24,317.84.42,24.65-10.24,26.1-29,25.21-16.59-.8-30.59,2.66-30.32-23.87,1.44-136.76,1.07-273.55.22-410.33-.12-19.56,6.72-22.18,24.49-24.15,35.33-3.91,54.79,9.8,72.7,40.13,56.31,95.3,116.13,188.54,174.69,282.51C2713.62,571.77,2719.21,579.24,2729.11,593.61Z"/><path class="cls-3" d="M689,511.19c.85-94.9,74.21-165.67,171-164.95,95,.72,166.33,74.17,165.5,170.52-.81,94.68-74.63,166-171,165.14C759.67,681.09,688.16,607.33,689,511.19Zm262,1.94c-.29-57.74-39.32-99.54-93.22-99.82-55-.29-94.56,42.39-94.26,101.63.29,57.56,39.5,99.6,93.19,99.9C911.49,615.14,951.3,572.2,951,513.13Z"/><path class="cls-4" d="M1401.7,515.72c-.49,95-73.81,166.68-170,166.18-95.16-.5-167-73.75-166.51-169.68.53-95.23,73.4-166.41,169.94-166C1330.63,346.67,1402.2,419.51,1401.7,515.72Zm-74.53-1.17c.15-59.33-39.43-101.63-94.65-101.13-54,.5-92.61,42.15-92.75,100.1-.14,59.2,39.58,101.69,94.62,101.21C1288.17,614.26,1327,572.3,1327.17,514.55Z"/><path class="cls-5" d="M2094.63,681.93c-55.8-3.11-108.75-32.63-136.56-95.83-29-66-21.94-131,25.5-186.56,41.8-49,97.33-64.7,159.43-47.17,54.48,15.38,85,56.11,104.72,107.19,6.74,17.49-6.1,16.74-14.75,20.35-60.29,25.16-120.72,50-181,75.14-25,10.44-25.71,15.33-6.09,35.18,33.19,33.59,91.84,33.19,128.25.07,7-6.37,11.15-22.38,23.7-16,16.9,8.63,32.68,20.26,46.93,32.87,5.72,5.06-4,11.51-7.87,16.29C2207.47,660.2,2159,681.82,2094.63,681.93ZM2016.4,508.38c44.15-18.14,85.82-35,127.19-52.52,7.4-3.14,19.83-2.82,20.25-13.06.4-10-9.18-16.22-17.47-21.31-27-16.58-55-16.54-82.21-1.66C2030.76,438.11,2017.28,468.17,2016.4,508.38Z"/><path class="cls-2" d="M4253.61,656.42c-34.12,44.53-74.12,61.4-122.86,52.89-61.36-10.72-99.59-57.1-96.19-114.31,3.19-53.92,48.4-92.91,113.67-98a223.25,223.25,0,0,1,104,16.1c2.8-36.66-10.74-61.36-40.95-76.57-32.64-16.43-70.76-10.75-99.65,13.56-6.39,5.38-9.15,20.1-22,13.12-14.29-7.77-28.39-16.38-41-26.61-5-4.1,2.7-9.88,6.07-14C4089.42,379.71,4166,362.6,4228,383.67c53.69,18.25,82.47,60.9,83.18,125.3.61,54.91-.72,109.86.58,164.75.47,19.91-4.73,28-25.49,25.89-16.54-1.69-37.33,4.89-31.73-24.59C4255.23,671.38,4254.23,667.41,4253.61,656.42Zm-92.37,2.26c40.59-.49,80.36-32.73,91-72.35,4.25-15.84.7-25.64-14.85-31.88-31.44-12.62-63.24-16.33-95.83-5.58-31.24,10.31-50.62,36.1-46.78,61.41C4099,638.11,4127.78,659.08,4161.24,658.68Z"/><path class="cls-2" d="M3172.42,546c-.86,96.14-69.3,165.45-162.8,164.86-91.87-.58-160-73.2-158.74-169.3,1.25-98.26,69.44-167.2,164.57-166.38C3106.49,375.94,3173.28,448.63,3172.42,546Zm-261.79-2.18c.21,52.26,25.17,93.29,66.11,108.65,52.71,19.78,108.32-6.34,128.64-60.43,24.33-64.77-2.88-137.33-59.49-158.64C2976.77,407.36,2910.31,461.62,2910.63,543.8Z"/><path class="cls-2" d="M4469.05,710.84c-34-.88-76.9-20.42-105.56-65.9-4.76-7.55-17.42-20.18-.14-25,15.17-4.19,29.63-30.92,48.41-5.59,29,39.11,63.11,52.74,101.79,40.29,18.93-6.1,37.15-13.81,37.33-37.9.17-23.48-16.8-33.6-35.66-40-19-6.49-38.94-10.36-58.15-16.36-16.45-5.14-33.39-9.92-48.5-17.91-59.79-31.6-63.45-105.69-7.8-144s145.43-29.2,188.18,20c7.3,8.38,21.48,17.38,11.88,31-9.09,12.9-45.45,14.93-54.86,5.31-27.39-28-68.63-35.83-100.39-18.8-13.34,7.14-24.19,16.5-23.34,33.43.79,15.72,11.72,24.51,24.68,29.1,20.76,7.35,42.28,12.56,63.48,18.69,1.85.53,3.64,1.26,5.5,1.76,69.72,18.87,102.15,53.54,96.32,103C4606.11,673.7,4554.1,710.83,4469.05,710.84Z"/><path class="cls-2" d="M3566.19,544.33c-.93-64.73,23.18-117.69,80.77-149.38,53.42-29.4,109.05-28.57,162.08,3.78,11.3,6.89,21.46,16.48,30.25,26.48,28.33,32.22,26.23,37.76-13.76,53.57-12.46,4.93-17.15,2.19-24.68-8.71-41.89-60.68-122.87-57.29-159.27,7-26.44,46.68-25.22,94.56,4.86,139.45,38.07,56.83,117.95,58.06,155.81,1.14,20.31-30.53,35.72-3.49,49.9,2,22.59,8.77,2.87,22.64-3.19,31.33-36,51.57-103.25,72.19-170.44,53.73-60.3-16.57-106.9-74.64-112.26-140.17C3565.72,557.84,3566.19,551.07,3566.19,544.33Z"/><path class="cls-6" d="M1812.15,427.33c0-76.15.65-152.31-.44-228.44-.28-19.65,4.28-26.58,25.22-26.13,48.61,1,48.64-.13,48.64,48.63,0,143.63-.59,287.26.58,430.87.19,23.93-5.85,33.81-30.07,30a69.06,69.06,0,0,0-20.2,0c-18.75,2.66-24.45-4.42-24.18-23.58C1812.79,581.57,1812.15,504.45,1812.15,427.33Z"/><path class="cls-7" d="M3252.07,539.4c0-25.06-1.29-50.21.4-75.15,1.38-20.26-5.16-26.79-25.6-25.82-29.19,1.39-39-14-30.52-42.36,4.73-15.89,17.82-9.67,26.38-8.75,24.48,2.65,32.89-6.67,29.64-30.5-1.68-12.3,1.21-25.24-.61-37.5-3.82-25.69,5.87-32.25,31.33-31.94,23.74.28,31,7.87,27.71,29.69-.71,4.71-.11,9.62-.11,14.44,0,54.06,0,55.53,52.91,54.58,23.79-.43,23.1,11.07,23.4,28,.3,17.27-2.34,25.56-23.06,25.38-53.24-.46-53.25.69-53.25,54.34,0,37.59-.6,75.19.23,112.76.76,34.54,17.07,48.88,51.58,44.9,29.36-3.38,19.45,22.9,26.8,35.07,9.14,15.13-8.72,13.43-15.84,15.29-69.68,18.23-121-21.38-121.37-93.05C3252,585.66,3252.07,562.53,3252.07,539.4Z"/><path class="cls-7" d="M3450.19,540.19c0-43.38,1.42-86.82-.57-130.1-1.07-23.3,10.1-25.15,27.61-23.41,14.68,1.46,32.63-7.05,32.11,21.79q-2.45,134.41,0,268.9c.52,28.55-17,20.68-32,22-17.28,1.49-28.8.28-27.77-23.27C3451.6,630.86,3450.19,585.49,3450.19,540.19Z"/><path class="cls-7" d="M3977.56,545.86c0,43.37-1.41,86.81.56,130.1,1.07,23.33-10.19,25-27.64,23.36-14.73-1.43-32.6,7-32.07-21.83q2.46-134.43,0-268.91c-.52-28.7,17.19-20.56,32-21.91,17.36-1.59,28.73-.13,27.72,23.3C3976.17,455.19,3977.56,500.55,3977.56,545.86Z"/><path class="cls-8" d="M3520.34,283.62c-.45,22.59-17.44,39.33-40.19,39.59a40.7,40.7,0,0,1-41.53-41.52c.48-21.86,18.42-39.35,40.6-39.58C3503.1,241.86,3520.81,259.74,3520.34,283.62Z"/><path class="cls-8" d="M3989.15,283.71c-.49,22.58-17.52,39.28-40.27,39.5a40.69,40.69,0,0,1-41.45-41.61c.53-21.85,18.52-39.3,40.7-39.49C3972,241.91,3989.67,259.82,3989.15,283.71Z"/></svg>