<svg id="Capa_1" data-name="Capa 1" xmlns="http://www.w3.org/2000/svg" viewBox="0 0 1000 1000"><defs><style>.cls-1{fill:#5f6368;}</style></defs><path class="cls-1" d="M987.78,928.88,703.41,644.5a393.94,393.94,0,0,0,88.25-248.67C791.66,177.58,614.08,0,395.83,0S0,177.58,0,395.83,177.58,791.67,395.83,791.67a393.93,393.93,0,0,0,248.66-88.25L928.86,987.79a41.66,41.66,0,1,0,58.92-58.91ZM395.83,708.33c-172.33,0-312.5-140.16-312.5-312.5S223.5,83.33,395.83,83.33s312.5,140.17,312.5,312.5S568.16,708.33,395.83,708.33Z"/></svg>